<svg xmlns="http://www.w3.org/2000/svg" width="375" viewBox="0 0 375 150" height="150" version="1.0"><defs><clipPath id="a"><path d="M 36 44 L 176 44 L 176 80.96875 L 36 80.96875 Z M 36 44"/></clipPath><clipPath id="b"><path d="M 181 34 L 335.695312 34 L 335.695312 80.96875 L 181 80.96875 Z M 181 34"/></clipPath></defs><path fill="#AA268E" d="M 210.605469 10.472656 L 227.878906 17.277344 L 210.605469 23.710938 L 210.605469 32.90625 L 240.191406 20.957031 L 240.191406 13.605469 L 210.605469 1.65625 Z M 210.605469 10.472656"/><g clip-path="url(#a)"><path fill="#545454" d="M 52.019531 44.667969 C 43.746094 44.667969 37.683594 48.34375 37.132812 56.058594 L 46.324219 56.058594 L 46.324219 55.878906 C 46.503906 53.308594 48.894531 51.472656 51.46875 51.683594 C 54.960938 51.683594 56.617188 53.703125 56.617188 57.199219 L 56.617188 58.855469 L 52.417969 58.855469 C 43.417969 58.855469 36.0625 61.613281 36.0625 70.246094 L 36.0625 70.617188 C 36.0625 77.601562 41.210938 80.726562 47.453125 80.726562 C 51.3125 80.90625 54.800781 79.070312 57.007812 76.128906 L 57.007812 80.179688 L 66.382812 80.179688 L 66.382812 57.015625 C 66.199219 48.191406 60.132812 44.699219 52.046875 44.699219 Z M 50 73.898438 C 46.6875 73.898438 45.21875 72.246094 45.21875 69.851562 L 45.21875 69.484375 C 45.21875 66.359375 47.609375 65.074219 52.414062 65.074219 L 56.273438 65.074219 L 56.273438 68.386719 C 56.453125 72.0625 53.335938 73.902344 50.023438 73.902344 Z M 88.40625 73.523438 C 83.808594 73.523438 81.421875 70.402344 81.421875 63.414062 L 81.421875 62.3125 C 81.421875 55.503906 84.179688 52.203125 88.40625 52.203125 C 91.714844 52.203125 93.550781 54.40625 94.097656 57.71875 L 103.289062 57.71875 C 102.554688 48.710938 95.941406 44.667969 88.21875 44.667969 C 79.027344 44.667969 71.679688 50.917969 71.679688 62.65625 L 71.679688 63.023438 C 71.679688 74.789062 78.664062 80.671875 88.21875 80.671875 C 97.589844 80.671875 102.921875 74.976562 103.65625 67.253906 L 94.835938 67.253906 C 94.101562 71.113281 91.714844 73.503906 88.40625 73.503906 Z M 124.238281 73.523438 C 119.644531 73.523438 117.257812 70.402344 117.257812 63.414062 L 117.257812 62.3125 C 117.257812 55.503906 120.011719 52.203125 124.238281 52.203125 C 127.546875 52.203125 129.386719 54.40625 129.933594 57.71875 L 139.125 57.71875 C 138.390625 48.710938 131.773438 44.667969 124.054688 44.667969 C 114.863281 44.667969 107.515625 50.917969 107.515625 62.65625 L 107.515625 63.023438 C 107.515625 74.789062 114.5 80.671875 124.054688 80.671875 C 133.425781 80.671875 138.753906 74.976562 139.339844 67.253906 L 130.703125 67.253906 C 130.148438 71.113281 127.578125 73.503906 124.269531 73.503906 Z M 160.441406 73.710938 C 156.242188 73.710938 153.636719 71.320312 153.246094 65.070312 L 175.664062 65.070312 L 175.664062 60.992188 C 175.664062 49.597656 168.472656 44.628906 159.863281 44.628906 C 150.488281 44.628906 143.324219 51.066406 143.324219 62.621094 L 143.324219 63.355469 C 143.324219 74.9375 150.125 80.820312 160.046875 80.820312 C 169.050781 80.820312 174.566406 75.859375 175.484375 69.238281 L 166.480469 69.238281 C 166.109375 71.996094 163.355469 74.015625 160.414062 73.644531 Z M 159.886719 51.285156 C 163.75 51.285156 166.136719 53.492188 166.320312 58.636719 L 153.457031 58.636719 C 154.191406 53.117188 156.949219 51.441406 159.886719 51.285156 Z M 159.886719 51.285156"/></g><g clip-path="url(#b)"><path fill="#545454" d="M 201.785156 44.667969 C 197.378906 44.488281 193.335938 46.6875 191.3125 50.550781 L 191.3125 45.402344 L 181.757812 45.402344 L 181.757812 79.960938 L 191.3125 79.960938 L 191.3125 57.902344 C 191.492188 54.78125 194.25 52.207031 197.375 52.386719 C 200.867188 52.386719 202.519531 54.226562 202.519531 58.269531 L 202.519531 79.960938 L 212.261719 79.960938 L 212.261719 56.792969 C 212.261719 48.339844 208.066406 44.660156 201.785156 44.660156 Z M 230.273438 68.929688 L 230.273438 52.597656 L 236.886719 52.597656 L 236.886719 45.402344 L 230.273438 45.402344 L 230.273438 34.921875 L 220.71875 38.96875 L 220.71875 45.402344 L 216.519531 45.402344 L 216.519531 52.597656 L 220.566406 52.597656 L 220.566406 70.0625 C 220.566406 77.046875 224.058594 80.539062 231.597656 80.539062 C 233.433594 80.539062 235.273438 80.359375 237.113281 79.804688 L 237.113281 72.234375 C 236.039062 72.601562 234.9375 72.785156 233.804688 72.789062 C 231.597656 72.789062 230.3125 71.5 230.3125 68.925781 Z M 263.53125 66.90625 L 263.53125 67.828125 C 263.351562 70.953125 260.59375 73.523438 257.46875 73.34375 C 253.976562 73.34375 252.507812 71.507812 252.507812 67.460938 L 252.507812 45.402344 L 242.769531 45.402344 L 242.769531 68.75 C 242.769531 76.839844 247.363281 80.695312 253.609375 80.695312 C 254.644531 80.746094 255.667969 80.648438 256.675781 80.402344 C 257.683594 80.15625 258.632812 79.769531 259.53125 79.25 C 260.425781 78.726562 261.230469 78.089844 261.941406 77.335938 C 262.65625 76.578125 263.246094 75.738281 263.714844 74.8125 L 263.714844 79.960938 L 273.457031 79.960938 L 273.457031 45.402344 L 263.714844 45.402344 Z M 289.996094 51.617188 L 289.996094 45.183594 L 280.441406 45.183594 L 280.441406 79.742188 L 289.996094 79.742188 L 289.996094 61.914062 C 289.996094 56.214844 293.859375 54.191406 300.472656 54.191406 L 300.472656 44.632812 C 295.695312 44.632812 291.46875 47.390625 289.996094 51.621094 Z M 335.753906 60.84375 C 335.753906 49.449219 328.558594 44.667969 319.949219 44.667969 C 310.578125 44.667969 303.410156 51.101562 303.410156 62.65625 L 303.410156 63.390625 C 303.410156 74.972656 310.214844 80.855469 320.136719 80.855469 C 329.136719 80.855469 334.46875 75.894531 335.570312 69.273438 L 326.566406 69.273438 C 325.832031 72.210938 323.074219 74.050781 320.136719 73.871094 C 315.9375 73.871094 313.332031 71.480469 312.941406 65.230469 L 335.390625 65.230469 L 335.390625 60.820312 Z M 313.335938 58.636719 C 314.070312 52.9375 316.824219 51.285156 319.949219 51.285156 C 323.808594 51.285156 326.199219 53.492188 326.382812 58.636719 Z M 313.335938 58.636719"/></g><g fill="#545454"><g><g><path d="M 16.984375 -4.28125 L 7.65625 -4.28125 L 5.921875 0 L -0.4375 0 L 9.296875 -22.046875 L 15.4375 -22.046875 L 25.203125 0 L 18.71875 0 Z M 15.15625 -8.890625 L 12.3125 -15.9375 L 9.484375 -8.890625 Z M 15.15625 -8.890625" transform="translate(19.175 127.65)"/></g></g></g><g fill="#545454"><g><g><path d="M 10.640625 0.28125 C 8.753906 0.28125 7.066406 -0.09375 5.578125 -0.84375 C 4.085938 -1.601562 2.925781 -2.65625 2.09375 -4 C 1.257812 -5.34375 0.84375 -6.863281 0.84375 -8.5625 C 0.84375 -10.269531 1.257812 -11.789062 2.09375 -13.125 C 2.925781 -14.457031 4.085938 -15.492188 5.578125 -16.234375 C 7.066406 -16.984375 8.753906 -17.359375 10.640625 -17.359375 C 12.578125 -17.359375 14.25 -16.941406 15.65625 -16.109375 C 17.0625 -15.285156 18.054688 -14.132812 18.640625 -12.65625 L 14.015625 -10.296875 C 13.242188 -11.828125 12.109375 -12.59375 10.609375 -12.59375 C 9.546875 -12.59375 8.660156 -12.234375 7.953125 -11.515625 C 7.253906 -10.804688 6.90625 -9.820312 6.90625 -8.5625 C 6.90625 -7.28125 7.253906 -6.273438 7.953125 -5.546875 C 8.660156 -4.828125 9.546875 -4.46875 10.609375 -4.46875 C 12.109375 -4.46875 13.242188 -5.234375 14.015625 -6.765625 L 18.640625 -4.40625 C 18.054688 -2.9375 17.0625 -1.785156 15.65625 -0.953125 C 14.25 -0.128906 12.578125 0.28125 10.640625 0.28125 Z M 10.640625 0.28125" transform="translate(43.934 127.65)"/></g></g></g><g fill="#545454"><g><g><path d="M 9.203125 -17.359375 C 12.035156 -17.359375 14.195312 -16.710938 15.6875 -15.421875 C 17.175781 -14.128906 17.921875 -12.148438 17.921875 -9.484375 L 17.921875 0 L 12.34375 0 L 12.34375 -2.203125 C 11.488281 -0.546875 9.8125 0.28125 7.3125 0.28125 C 5.988281 0.28125 4.84375 0.0507812 3.875 -0.40625 C 2.90625 -0.875 2.171875 -1.5 1.671875 -2.28125 C 1.179688 -3.070312 0.9375 -3.972656 0.9375 -4.984375 C 0.9375 -6.597656 1.554688 -7.847656 2.796875 -8.734375 C 4.035156 -9.628906 5.945312 -10.078125 8.53125 -10.078125 L 11.9375 -10.078125 C 11.832031 -11.878906 10.625 -12.78125 8.3125 -12.78125 C 7.5 -12.78125 6.671875 -12.648438 5.828125 -12.390625 C 4.984375 -12.128906 4.269531 -11.769531 3.6875 -11.3125 L 1.671875 -15.375 C 2.617188 -16 3.769531 -16.484375 5.125 -16.828125 C 6.476562 -17.179688 7.835938 -17.359375 9.203125 -17.359375 Z M 8.984375 -3.5 C 9.671875 -3.5 10.273438 -3.664062 10.796875 -4 C 11.328125 -4.332031 11.707031 -4.828125 11.9375 -5.484375 L 11.9375 -6.96875 L 9.359375 -6.96875 C 7.609375 -6.96875 6.734375 -6.390625 6.734375 -5.234375 C 6.734375 -4.703125 6.929688 -4.28125 7.328125 -3.96875 C 7.734375 -3.65625 8.285156 -3.5 8.984375 -3.5 Z M 8.984375 -3.5" transform="translate(62.928 127.65)"/></g></g></g><g fill="#545454"><g><g><path d="M 20.0625 -23.375 L 20.0625 0 L 14.359375 0 L 14.359375 -1.703125 C 13.242188 -0.378906 11.578125 0.28125 9.359375 0.28125 C 7.804688 0.28125 6.390625 -0.078125 5.109375 -0.796875 C 3.828125 -1.523438 2.8125 -2.5625 2.0625 -3.90625 C 1.3125 -5.25 0.9375 -6.800781 0.9375 -8.5625 C 0.9375 -10.332031 1.3125 -11.882812 2.0625 -13.21875 C 2.8125 -14.550781 3.828125 -15.570312 5.109375 -16.28125 C 6.390625 -17 7.804688 -17.359375 9.359375 -17.359375 C 11.390625 -17.359375 12.960938 -16.769531 14.078125 -15.59375 L 14.078125 -23.375 Z M 10.609375 -4.46875 C 11.640625 -4.46875 12.488281 -4.828125 13.15625 -5.546875 C 13.832031 -6.273438 14.171875 -7.28125 14.171875 -8.5625 C 14.171875 -9.820312 13.835938 -10.804688 13.171875 -11.515625 C 12.515625 -12.234375 11.660156 -12.59375 10.609375 -12.59375 C 9.566406 -12.59375 8.707031 -12.234375 8.03125 -11.515625 C 7.363281 -10.804688 7.03125 -9.820312 7.03125 -8.5625 C 7.03125 -7.28125 7.363281 -6.273438 8.03125 -5.546875 C 8.707031 -4.828125 9.566406 -4.46875 10.609375 -4.46875 Z M 10.609375 -4.46875" transform="translate(82.71 127.65)"/></g></g></g><g fill="#545454"><g><g><path d="M 19.375 -8.5 C 19.375 -8.457031 19.34375 -7.96875 19.28125 -7.03125 L 6.859375 -7.03125 C 7.117188 -6.144531 7.609375 -5.460938 8.328125 -4.984375 C 9.054688 -4.515625 9.96875 -4.28125 11.0625 -4.28125 C 11.875 -4.28125 12.578125 -4.394531 13.171875 -4.625 C 13.773438 -4.863281 14.382812 -5.242188 15 -5.765625 L 18.140625 -2.484375 C 16.484375 -0.640625 14.0625 0.28125 10.875 0.28125 C 8.875 0.28125 7.117188 -0.09375 5.609375 -0.84375 C 4.097656 -1.601562 2.925781 -2.65625 2.09375 -4 C 1.257812 -5.34375 0.84375 -6.863281 0.84375 -8.5625 C 0.84375 -10.25 1.25 -11.757812 2.0625 -13.09375 C 2.875 -14.425781 3.992188 -15.46875 5.421875 -16.21875 C 6.847656 -16.976562 8.453125 -17.359375 10.234375 -17.359375 C 11.929688 -17.359375 13.472656 -17.003906 14.859375 -16.296875 C 16.253906 -15.597656 17.351562 -14.582031 18.15625 -13.25 C 18.96875 -11.914062 19.375 -10.332031 19.375 -8.5 Z M 10.265625 -13.109375 C 9.347656 -13.109375 8.578125 -12.84375 7.953125 -12.3125 C 7.335938 -11.789062 6.941406 -11.078125 6.765625 -10.171875 L 13.765625 -10.171875 C 13.597656 -11.078125 13.203125 -11.789062 12.578125 -12.3125 C 11.960938 -12.84375 11.191406 -13.109375 10.265625 -13.109375 Z M 10.265625 -13.109375" transform="translate(104.697 127.65)"/></g></g></g><g fill="#545454"><g><g><path d="M 24.15625 -17.359375 C 26.257812 -17.359375 27.9375 -16.726562 29.1875 -15.46875 C 30.4375 -14.207031 31.0625 -12.304688 31.0625 -9.765625 L 31.0625 0 L 25.078125 0 L 25.078125 -8.78125 C 25.078125 -9.976562 24.847656 -10.859375 24.390625 -11.421875 C 23.941406 -11.992188 23.304688 -12.28125 22.484375 -12.28125 C 21.585938 -12.28125 20.863281 -11.960938 20.3125 -11.328125 C 19.769531 -10.703125 19.5 -9.75 19.5 -8.46875 L 19.5 0 L 13.515625 0 L 13.515625 -8.78125 C 13.515625 -11.113281 12.65625 -12.28125 10.9375 -12.28125 C 10.007812 -12.28125 9.269531 -11.960938 8.71875 -11.328125 C 8.175781 -10.703125 7.90625 -9.75 7.90625 -8.46875 L 7.90625 0 L 1.921875 0 L 1.921875 -17.078125 L 7.625 -17.078125 L 7.625 -15.28125 C 8.25 -15.96875 9 -16.484375 9.875 -16.828125 C 10.75 -17.179688 11.695312 -17.359375 12.71875 -17.359375 C 13.914062 -17.359375 14.988281 -17.132812 15.9375 -16.6875 C 16.882812 -16.25 17.648438 -15.578125 18.234375 -14.671875 C 18.910156 -15.535156 19.757812 -16.195312 20.78125 -16.65625 C 21.8125 -17.125 22.9375 -17.359375 24.15625 -17.359375 Z M 24.15625 -17.359375" transform="translate(124.92 127.65)"/></g></g></g><g fill="#545454"><g><g><path d="M 19.90625 -17.078125 L 12.53125 0.6875 C 11.675781 2.789062 10.628906 4.265625 9.390625 5.109375 C 8.148438 5.960938 6.632812 6.390625 4.84375 6.390625 C 3.945312 6.390625 3.039062 6.25 2.125 5.96875 C 1.207031 5.6875 0.46875 5.3125 -0.09375 4.84375 L 1.984375 0.65625 C 2.316406 0.976562 2.71875 1.226562 3.1875 1.40625 C 3.664062 1.582031 4.144531 1.671875 4.625 1.671875 C 5.195312 1.671875 5.664062 1.550781 6.03125 1.3125 C 6.394531 1.082031 6.707031 0.71875 6.96875 0.21875 L -0.34375 -17.078125 L 5.796875 -17.078125 L 9.984375 -6.640625 L 14.203125 -17.078125 Z M 19.90625 -17.078125" transform="translate(157.838 127.65)"/></g></g></g><g fill="#545454"><g><g><path d="M 8.4375 -17.234375 L 8.4375 -12.375 L 18.171875 -12.375 L 18.171875 -7.5625 L 8.4375 -7.5625 L 8.4375 0 L 2.203125 0 L 2.203125 -22.046875 L 19.5 -22.046875 L 19.5 -17.234375 Z M 8.4375 -17.234375" transform="translate(186.534 127.65)"/></g></g></g><g fill="#545454"><g><g><path d="M 7.625 -15.03125 C 8.226562 -15.800781 9.019531 -16.378906 10 -16.765625 C 10.976562 -17.160156 12.097656 -17.359375 13.359375 -17.359375 L 13.359375 -11.96875 C 12.804688 -12.03125 12.351562 -12.0625 12 -12.0625 C 10.71875 -12.0625 9.710938 -11.710938 8.984375 -11.015625 C 8.265625 -10.328125 7.90625 -9.269531 7.90625 -7.84375 L 7.90625 0 L 1.921875 0 L 1.921875 -17.078125 L 7.625 -17.078125 Z M 7.625 -15.03125" transform="translate(206.757 127.65)"/></g></g></g><g fill="#545454"><g><g><path d="M 10.484375 0.28125 C 8.660156 0.28125 7.015625 -0.09375 5.546875 -0.84375 C 4.078125 -1.601562 2.925781 -2.65625 2.09375 -4 C 1.257812 -5.34375 0.84375 -6.863281 0.84375 -8.5625 C 0.84375 -10.25 1.257812 -11.765625 2.09375 -13.109375 C 2.925781 -14.453125 4.070312 -15.492188 5.53125 -16.234375 C 6.988281 -16.984375 8.640625 -17.359375 10.484375 -17.359375 C 12.335938 -17.359375 14 -16.984375 15.46875 -16.234375 C 16.9375 -15.492188 18.078125 -14.457031 18.890625 -13.125 C 19.710938 -11.789062 20.125 -10.269531 20.125 -8.5625 C 20.125 -6.863281 19.710938 -5.34375 18.890625 -4 C 18.078125 -2.65625 16.9375 -1.601562 15.46875 -0.84375 C 14 -0.09375 12.335938 0.28125 10.484375 0.28125 Z M 10.484375 -4.46875 C 11.535156 -4.46875 12.394531 -4.828125 13.0625 -5.546875 C 13.738281 -6.273438 14.078125 -7.28125 14.078125 -8.5625 C 14.078125 -9.820312 13.738281 -10.804688 13.0625 -11.515625 C 12.394531 -12.234375 11.535156 -12.59375 10.484375 -12.59375 C 9.441406 -12.59375 8.582031 -12.234375 7.90625 -11.515625 C 7.238281 -10.804688 6.90625 -9.820312 6.90625 -8.5625 C 6.90625 -7.28125 7.238281 -6.273438 7.90625 -5.546875 C 8.582031 -4.828125 9.441406 -4.46875 10.484375 -4.46875 Z M 10.484375 -4.46875" transform="translate(220.712 127.65)"/></g></g></g><g fill="#545454"><g><g><path d="M 13.046875 -17.359375 C 15.160156 -17.359375 16.863281 -16.726562 18.15625 -15.46875 C 19.445312 -14.207031 20.09375 -12.304688 20.09375 -9.765625 L 20.09375 0 L 14.109375 0 L 14.109375 -8.78125 C 14.109375 -11.113281 13.175781 -12.28125 11.3125 -12.28125 C 10.28125 -12.28125 9.453125 -11.941406 8.828125 -11.265625 C 8.210938 -10.597656 7.90625 -9.59375 7.90625 -8.25 L 7.90625 0 L 1.921875 0 L 1.921875 -17.078125 L 7.625 -17.078125 L 7.625 -15.21875 C 8.289062 -15.90625 9.085938 -16.429688 10.015625 -16.796875 C 10.941406 -17.171875 11.953125 -17.359375 13.046875 -17.359375 Z M 13.046875 -17.359375" transform="translate(241.691 127.65)"/></g></g></g><g fill="#545454"><g><g><path d="M 13.703125 -0.6875 C 13.203125 -0.375 12.585938 -0.132812 11.859375 0.03125 C 11.128906 0.195312 10.359375 0.28125 9.546875 0.28125 C 7.316406 0.28125 5.601562 -0.265625 4.40625 -1.359375 C 3.207031 -2.453125 2.609375 -4.078125 2.609375 -6.234375 L 2.609375 -11.96875 L 0.125 -11.96875 L 0.125 -16.4375 L 2.609375 -16.4375 L 2.609375 -20.890625 L 8.59375 -20.890625 L 8.59375 -16.4375 L 12.5 -16.4375 L 12.5 -11.96875 L 8.59375 -11.96875 L 8.59375 -6.296875 C 8.59375 -5.691406 8.753906 -5.210938 9.078125 -4.859375 C 9.410156 -4.515625 9.847656 -4.34375 10.390625 -4.34375 C 11.085938 -4.34375 11.695312 -4.519531 12.21875 -4.875 Z M 13.703125 -0.6875" transform="translate(263.615 127.65)"/></g></g></g><g fill="#545454"><g><g><path d="M 1.515625 -11.28125 L 10.703125 -11.28125 L 10.703125 -6.671875 L 1.515625 -6.671875 Z M 1.515625 -11.28125" transform="translate(277.696 127.65)"/></g></g></g><g fill="#545454"><g><g><path d="M 19.90625 -4.8125 L 19.90625 0 L 2.203125 0 L 2.203125 -22.046875 L 19.5 -22.046875 L 19.5 -17.234375 L 8.375 -17.234375 L 8.375 -13.515625 L 18.171875 -13.515625 L 18.171875 -8.84375 L 8.375 -8.84375 L 8.375 -4.8125 Z M 19.90625 -4.8125" transform="translate(289.918 127.65)"/></g></g></g><g fill="#545454"><g><g><path d="M 13.046875 -17.359375 C 15.160156 -17.359375 16.863281 -16.726562 18.15625 -15.46875 C 19.445312 -14.207031 20.09375 -12.304688 20.09375 -9.765625 L 20.09375 0 L 14.109375 0 L 14.109375 -8.78125 C 14.109375 -11.113281 13.175781 -12.28125 11.3125 -12.28125 C 10.28125 -12.28125 9.453125 -11.941406 8.828125 -11.265625 C 8.210938 -10.597656 7.90625 -9.59375 7.90625 -8.25 L 7.90625 0 L 1.921875 0 L 1.921875 -17.078125 L 7.625 -17.078125 L 7.625 -15.21875 C 8.289062 -15.90625 9.085938 -16.429688 10.015625 -16.796875 C 10.941406 -17.171875 11.953125 -17.359375 13.046875 -17.359375 Z M 13.046875 -17.359375" transform="translate(311.086 127.65)"/></g></g></g><g fill="#545454"><g><g><path d="M 20.0625 -23.375 L 20.0625 0 L 14.359375 0 L 14.359375 -1.703125 C 13.242188 -0.378906 11.578125 0.28125 9.359375 0.28125 C 7.804688 0.28125 6.390625 -0.078125 5.109375 -0.796875 C 3.828125 -1.523438 2.8125 -2.5625 2.0625 -3.90625 C 1.3125 -5.25 0.9375 -6.800781 0.9375 -8.5625 C 0.9375 -10.332031 1.3125 -11.882812 2.0625 -13.21875 C 2.8125 -14.550781 3.828125 -15.570312 5.109375 -16.28125 C 6.390625 -17 7.804688 -17.359375 9.359375 -17.359375 C 11.390625 -17.359375 12.960938 -16.769531 14.078125 -15.59375 L 14.078125 -23.375 Z M 10.609375 -4.46875 C 11.640625 -4.46875 12.488281 -4.828125 13.15625 -5.546875 C 13.832031 -6.273438 14.171875 -7.28125 14.171875 -8.5625 C 14.171875 -9.820312 13.835938 -10.804688 13.171875 -11.515625 C 12.515625 -12.234375 11.660156 -12.59375 10.609375 -12.59375 C 9.566406 -12.59375 8.707031 -12.234375 8.03125 -11.515625 C 7.363281 -10.804688 7.03125 -9.820312 7.03125 -8.5625 C 7.03125 -7.28125 7.363281 -6.273438 8.03125 -5.546875 C 8.707031 -4.828125 9.566406 -4.46875 10.609375 -4.46875 Z M 10.609375 -4.46875" transform="translate(333.01 127.65)"/></g></g></g></svg>